<svg width="53" height="53" viewBox="0 0 53 53" fill="none" xmlns="http://www.w3.org/2000/svg">
<path d="M26.4574 0.00666809C26.4145 0.12117 26.1854 1.28053 25.9276 2.58303C23.7366 13.6757 21.2879 18.4563 16.2185 21.5193C13.3832 23.2368 8.85801 24.6968 2.5858 25.9134C1.28267 26.1567 0.122738 26.4 0.00817693 26.443C-0.106384 26.4859 0.996265 26.7722 2.47124 27.0584C11.6361 28.9048 16.104 30.7226 19.2544 33.8715C22.2187 36.8343 24.1805 41.6721 25.856 50.0596C26.1281 51.4623 26.4002 52.7648 26.4431 52.9652C26.5004 53.1942 26.7438 52.2924 27.1448 50.3172C29.0207 41.0996 30.6819 37.0204 33.8609 33.8428C37.04 30.6796 40.9924 29.0623 50.2575 27.13C51.8756 26.8008 53.1072 26.4859 52.9926 26.443C52.8781 26.4 51.5892 26.1281 50.1286 25.8418C41.6654 24.1672 36.8825 22.2206 33.8609 19.2005C30.7821 16.1375 29.0351 11.9009 27.2164 3.08398C26.8441 1.26622 26.5004 -0.107838 26.4574 0.00666809Z" fill="#FFA0A0"/>
</svg>
